<svg width="14" height="17" viewBox="0 0 14 17" fill="none" xmlns="http://www.w3.org/2000/svg">
<g clip-path="url(#clip0_148_135)">
<path d="M9.7181 0.674875L13.1262 4.13696C13.6324 4.65662 13.801 5.18301 13.801 6.0131V11.493C13.801 12.8968 13.0992 13.6122 11.709 13.6122H10.5279V12.5256H11.6483C12.3501 12.5256 12.7145 12.1477 12.7145 11.4728V5.70266H9.55616C8.78003 5.70266 8.40207 5.33149 8.40207 4.54864V1.08654H5.41917C4.7173 1.08654 4.35962 1.47122 4.35962 2.13934V3.36761H3.27307V2.1191C3.27307 0.715365 3.97494 0 5.36518 0H7.94994C8.67205 0 9.23896 0.182215 9.7181 0.674875ZM9.38068 4.38667C9.38068 4.62287 9.47513 4.7241 9.71136 4.7241H12.4311L9.38068 1.61969V4.38667Z" fill="white"/>
<path d="M0 14.8607C0 16.2712 0.695117 16.9798 2.0921 16.9798H8.43587C9.83287 16.9798 10.528 16.2644 10.528 14.8607V9.5899C10.528 8.72607 10.4268 8.34817 9.88689 7.7948L6.16831 4.00874C5.65542 3.48234 5.23025 3.36761 4.4744 3.36761H2.0921C0.701867 3.36761 0 4.07622 0 5.48671V14.8607ZM1.08654 14.8404V5.50021C1.08654 4.83883 1.44422 4.45416 2.14609 4.45416H4.35967V8.36838C4.35967 9.21874 4.79159 9.64392 5.62843 9.64392H9.44144V14.8404C9.44144 15.5153 9.07701 15.8933 8.38191 15.8933H2.13934C1.44422 15.8933 1.08654 15.5153 1.08654 14.8404ZM5.75665 8.62488C5.4867 8.62488 5.37872 8.5169 5.37872 8.24693V4.70386L9.23222 8.62488H5.75665Z" fill="white"/>
</g>
<defs>
<clipPath id="clip0_148_135">
<rect width="14.0036" height="17" fill="white"/>
</clipPath>
</defs>
</svg>
