<svg width="17" height="15" viewBox="0 0 17 15" fill="none" xmlns="http://www.w3.org/2000/svg">
<path d="M1.84733 3.00084C1.41663 3.91283 1.41663 5.21495 1.41663 7.5C1.41663 10.1561 1.41663 11.4841 2.09302 12.4151C2.31147 12.7157 2.57588 12.9802 2.87655 13.1986C3.80754 13.875 5.13557 13.875 7.79163 13.875H9.20829C11.8644 13.875 13.1924 13.875 14.1234 13.1986C14.424 12.9802 14.6884 12.7157 14.9069 12.4151C15.5833 11.4841 15.5833 10.1561 15.5833 7.5C15.5833 5.1988 15.5833 3.89448 15.1434 2.98156M1.84733 3.00084C1.91726 2.85276 1.99854 2.71497 2.09302 2.58493C2.31147 2.28426 2.57588 2.01985 2.87655 1.8014C3.80754 1.125 5.13557 1.125 7.79163 1.125H9.20829C11.8644 1.125 13.1924 1.125 14.1234 1.8014C14.424 2.01985 14.6884 2.28426 14.9069 2.58493C14.9973 2.70931 15.0756 2.84078 15.1434 2.98156M1.84733 3.00084L2.12496 3.25L3.49129 4.61633C5.8524 6.97744 7.03295 8.15799 8.49996 8.15799C9.96697 8.15799 11.1475 6.97744 13.5086 4.61633L14.875 3.25L15.1434 2.98156" stroke="#FAFAFA" stroke-width="1.5"/>
</svg>
