<svg width="92" height="27" viewBox="0 0 92 27" fill="none" xmlns="http://www.w3.org/2000/svg">
<path d="M24.8508 24.8334C23.8463 25.3918 22.3459 25.8955 20.3494 26.3446C18.3529 26.7815 16.4494 27 14.6389 27C9.96388 27 6.3553 25.8591 3.81318 23.5772C1.27106 21.2832 0 18.0728 0 13.9461C0 11.1787 0.638631 8.72084 1.91589 6.57249C3.20555 4.42414 5.01604 2.79164 7.34735 1.67498C9.67866 0.558328 12.4254 0 15.5875 0C17.9065 0 20.3804 0.321645 23.0093 0.964936V7.82873C21.7816 7.28254 20.6036 6.90627 19.4751 6.69993C18.3467 6.48146 17.1128 6.37222 15.7736 6.37222C13.5662 6.37222 11.8054 7.02158 10.4909 8.3203C9.18884 9.61902 8.53781 11.4032 8.53781 13.673C8.53781 15.8456 9.08343 17.5448 10.1747 18.7707C11.2783 19.9966 12.816 20.6096 14.7877 20.6096C15.7054 20.6096 16.3812 20.561 16.8152 20.4639V16.7316H11.7V10.7782H24.8508V24.8334Z" fill="white"/>
<path d="M43.0425 26.5448L41.0522 20.9191C40.6677 19.8146 40.1655 18.9467 39.5455 18.3156C38.9379 17.6844 38.2744 17.3688 37.5552 17.3688H37.239V26.5448H29.2034V0.436952H39.8803C43.6129 0.436952 46.3658 1.03776 48.1391 2.23938C49.9248 3.42886 50.8176 5.21915 50.8176 7.61025C50.8176 9.40661 50.2968 10.9117 49.2552 12.1254C48.2259 13.3392 46.6882 14.2192 44.6421 14.7653V14.8382C45.7706 15.178 46.7068 15.7303 47.4509 16.4949C48.2073 17.2596 48.8831 18.3945 49.4784 19.8995L52.1011 26.5448H43.0425ZM42.2798 8.72084C42.2798 7.84693 42.007 7.15509 41.4614 6.64531C40.9158 6.13554 40.0601 5.88065 38.8945 5.88065H37.239V11.8523H38.6898C39.7687 11.8523 40.6367 11.555 41.294 10.9602C41.9512 10.3655 42.2798 9.61902 42.2798 8.72084Z" fill="white"/>
<path d="M80.3558 13.1632C80.3558 15.8092 79.7854 18.1517 78.6446 20.1908C77.5161 22.2178 75.8978 23.7835 73.7897 24.8881C71.6816 25.9926 69.2511 26.5448 66.4982 26.5448H55.2074V0.436952H66.2564C75.656 0.436952 80.3558 4.67903 80.3558 13.1632ZM71.818 13.236C71.818 11.9616 71.5514 10.8146 71.0182 9.79501C70.4974 8.77546 69.7471 7.98651 68.7675 7.42819C67.7878 6.86986 66.6346 6.59069 65.3077 6.59069H63.243V20.3911H65.4937C67.4158 20.3911 68.9473 19.7478 70.0882 18.4612C71.2414 17.1625 71.818 15.4208 71.818 13.236Z" fill="white"/>
<path d="M92 23.3041C92 24.4086 91.6032 25.3007 90.8095 25.9804C90.0159 26.6601 88.9184 27 87.5172 27C86.2399 27 85.1921 26.648 84.3736 25.944C83.5676 25.2279 83.1646 24.3479 83.1646 23.3041C83.1646 22.236 83.5614 21.3742 84.355 20.7188C85.1611 20.0512 86.2399 19.7175 87.5916 19.7175C88.9061 19.7175 89.9663 20.0512 90.7723 20.7188C91.5908 21.3742 92 22.236 92 23.3041Z" fill="white"/>
</svg>
